# xmcd CD database file
#
# Track frame offsets:
#	150
#	16326
#	30097
#	46289
#
# Disc length: 797 seconds
#
# Revision: 1
# Processed by: cddbd v1.5.2PL0 Copyright (c) Steve Scherf et al.
# Submitted via: CDex 1.70beta2
#
DISCID=1f031b04
DTITLE=Agnes Chan - 16 tea
DYEAR=2005
DGENRE=Anime
TTITLE0=草原之輝2005
TTITLE1=口袋的秘密2005
TTITLE2=草原之輝2005(音樂)
TTITLE3=口袋的秘密2005(音樂)
EXTD=YEAR: 2005
EXTT0=
EXTT1=
EXTT2=
EXTT3=
PLAYORDER=
